<svg width="186" height="30" viewBox="0 0 186 30" fill="none" xmlns="http://www.w3.org/2000/svg">
<path d="M41.5481 23.8636V6.44318H44.9764L52.6006 18.737H50.7841L58.2803 6.44318H61.6831L61.7342 23.8636H57.8454L57.8198 12.2417H58.5362L52.5494 22.022H50.6818L44.5671 12.2417H45.4369V23.8636H41.5481Z" fill="#250822"/>
<path d="M72.0212 24.0627C70.8784 24.0627 69.8551 23.847 68.9511 23.4157C68.0641 22.9843 67.3734 22.329 66.8787 21.4497C66.3841 20.5537 66.1368 19.4173 66.1368 18.0402V10.4748H70.128V17.4678C70.128 18.5794 70.3667 19.4007 70.8443 19.9316C71.339 20.4459 72.0297 20.7031 72.9167 20.7031C73.5307 20.7031 74.0765 20.5786 74.5541 20.3298C75.0316 20.0643 75.4069 19.6661 75.6798 19.1352C75.9527 18.5877 76.0891 17.9075 76.0891 17.0945V10.4748H80.0803V23.8636H76.2938V20.1805L76.9846 21.2506C76.5241 22.1797 75.8418 22.8848 74.9378 23.3659C74.0509 23.8305 73.0787 24.0627 72.0212 24.0627Z" fill="#250822"/>
<path d="M92.6557 10.2757C93.7473 10.2757 94.7195 10.4914 95.5723 10.9227C96.4422 11.3375 97.1244 11.9845 97.6191 12.8639C98.1137 13.7266 98.361 14.8382 98.361 16.1986V23.8636H94.3698V16.7959C94.3698 15.7175 94.1225 14.9211 93.6279 14.4068C93.1503 13.8925 92.4681 13.6353 91.5811 13.6353C90.9501 13.6353 90.3787 13.7681 89.867 14.0335C89.3723 14.2824 88.98 14.6723 88.6901 15.2032C88.4172 15.7341 88.2807 16.4143 88.2807 17.2439V23.8636H84.2896V10.4748H88.1016V14.1828L87.3853 13.063C87.8799 12.167 88.5877 11.4785 89.5088 10.9974C90.4298 10.5162 91.4788 10.2757 92.6557 10.2757Z" fill="#250822"/>
<path d="M108.5 24.0627C107.204 24.0627 106.036 23.7807 104.995 23.2166C103.955 22.6359 103.128 21.8312 102.514 20.8026C101.917 19.774 101.618 18.5628 101.618 17.1692C101.618 15.759 101.917 14.5395 102.514 13.5109C103.128 12.4823 103.955 11.6859 104.995 11.1218C106.036 10.5577 107.204 10.2757 108.5 10.2757C109.66 10.2757 110.675 10.5245 111.545 11.0223C112.415 11.52 113.089 12.2749 113.566 13.2869C114.044 14.299 114.283 15.5931 114.283 17.1692C114.283 18.7287 114.052 20.0228 113.592 21.0515C113.131 22.0635 112.466 22.8184 111.596 23.3161C110.743 23.8139 109.711 24.0627 108.5 24.0627ZM109.191 20.8773C109.839 20.8773 110.428 20.728 110.957 20.4293C111.485 20.1307 111.903 19.7076 112.21 19.1601C112.534 18.596 112.696 17.9324 112.696 17.1692C112.696 16.3894 112.534 15.7258 112.21 15.1783C111.903 14.6308 111.485 14.2077 110.957 13.9091C110.428 13.6105 109.839 13.4611 109.191 13.4611C108.526 13.4611 107.929 13.6105 107.4 13.9091C106.872 14.2077 106.445 14.6308 106.121 15.1783C105.814 15.7258 105.661 16.3894 105.661 17.1692C105.661 17.9324 105.814 18.596 106.121 19.1601C106.445 19.7076 106.872 20.1307 107.4 20.4293C107.929 20.728 108.526 20.8773 109.191 20.8773ZM112.799 23.8636V21.1261L112.875 17.1443L112.62 13.1874V5.39795H116.611V23.8636H112.799Z" fill="#250822"/>
<path d="M126.624 24.0627C125.481 24.0627 124.458 23.847 123.554 23.4157C122.667 22.9843 121.976 22.329 121.482 21.4497C120.987 20.5537 120.74 19.4173 120.74 18.0402V10.4748H124.731V17.4678C124.731 18.5794 124.97 19.4007 125.447 19.9316C125.942 20.4459 126.633 20.7031 127.52 20.7031C128.134 20.7031 128.679 20.5786 129.157 20.3298C129.635 20.0643 130.01 19.6661 130.283 19.1352C130.556 18.5877 130.692 17.9075 130.692 17.0945V10.4748H134.683V23.8636H130.897V20.1805L131.587 21.2506C131.127 22.1797 130.445 22.8848 129.541 23.3659C128.654 23.8305 127.682 24.0627 126.624 24.0627Z" fill="#250822"/>
<path d="M137.946 23.8636V21.5243L146.082 12.167L146.772 13.4611H138.125V10.4748H149.996V12.8141L141.86 22.1714L141.144 20.8773H150.226V23.8636H137.946Z" fill="#250822"/>
<path d="M154.905 24.0627C154.223 24.0627 153.634 23.8387 153.14 23.3908C152.662 22.9262 152.423 22.3373 152.423 21.6239C152.423 20.9105 152.662 20.3381 153.14 19.9067C153.634 19.4587 154.223 19.2348 154.905 19.2348C155.604 19.2348 156.193 19.4587 156.67 19.9067C157.148 20.3381 157.387 20.9105 157.387 21.6239C157.387 22.3373 157.148 22.9262 156.67 23.3908C156.193 23.8387 155.604 24.0627 154.905 24.0627Z" fill="#250822"/>
<path d="M160.603 23.8636V10.4748H164.415V14.2575L163.878 13.1625C164.287 12.2168 164.944 11.5034 165.848 11.0223C166.752 10.5245 167.852 10.2757 169.148 10.2757V13.8593C168.978 13.8427 168.824 13.8344 168.688 13.8344C168.552 13.8178 168.407 13.8095 168.253 13.8095C167.161 13.8095 166.274 14.1165 165.592 14.7303C164.927 15.3276 164.594 16.265 164.594 17.5425V23.8636H160.603Z" fill="#250822"/>
<path d="M177.941 24.0627C176.798 24.0627 175.775 23.847 174.871 23.4157C173.984 22.9843 173.293 22.329 172.798 21.4497C172.304 20.5537 172.057 19.4173 172.057 18.0402V10.4748H176.048V17.4678C176.048 18.5794 176.286 19.4007 176.764 19.9316C177.259 20.4459 177.949 20.7031 178.836 20.7031C179.45 20.7031 179.996 20.5786 180.474 20.3298C180.951 20.0643 181.327 19.6661 181.6 19.1352C181.872 18.5877 182.009 17.9075 182.009 17.0945V10.4748H186V23.8636H182.214V20.1805L182.904 21.2506C182.444 22.1797 181.762 22.8848 180.858 23.3659C179.971 23.8305 178.998 24.0627 177.941 24.0627Z" fill="#250822"/>
<path d="M0 10.2857C0 6.68538 0 4.88521 0.720328 3.51006C1.35395 2.30045 2.36498 1.317 3.60852 0.700672C5.02225 0 6.87291 0 10.5742 0H20.2673C23.9686 0 25.8193 0 27.233 0.700672C28.4766 1.317 29.4876 2.30045 30.1212 3.51006C30.8416 4.88521 30.8416 6.68538 30.8416 10.2857V19.7143C30.8416 23.3146 30.8416 25.1148 30.1212 26.4899C29.4876 27.6996 28.4766 28.683 27.233 29.2993C25.8193 30 23.9686 30 20.2673 30H10.5742C6.87291 30 5.02225 30 3.60852 29.2993C2.36498 28.683 1.35395 27.6996 0.720328 26.4899C0 25.1148 0 23.3146 0 19.7143V10.2857Z" fill="url(#paint0_linear_209_300)"/>
<path d="M0 10.2857C0 6.68538 0 4.88521 0.720328 3.51006C1.35395 2.30045 2.36498 1.317 3.60852 0.700672C5.02225 0 6.87291 0 10.5742 0H20.2673C23.9686 0 25.8193 0 27.233 0.700672C28.4766 1.317 29.4876 2.30045 30.1212 3.51006C30.8416 4.88521 30.8416 6.68538 30.8416 10.2857V19.7143C30.8416 23.3146 30.8416 25.1148 30.1212 26.4899C29.4876 27.6996 28.4766 28.683 27.233 29.2993C25.8193 30 23.9686 30 20.2673 30H10.5742C6.87291 30 5.02225 30 3.60852 29.2993C2.36498 28.683 1.35395 27.6996 0.720328 26.4899C0 25.1148 0 23.3146 0 19.7143V10.2857Z" fill="url(#paint1_linear_209_300)"/>
<path d="M6.65894 22.159V7.84082H10.7061L16.5473 17.1885H14.4194L20.0937 7.84082H24.1408L24.1826 22.159H19.6973L19.6556 14.4681H20.3649L16.4847 20.8704H14.3151L10.268 14.4681H11.1441V22.159H6.65894Z" fill="white"/>
<defs>
<linearGradient id="paint0_linear_209_300" x1="15.4208" y1="0" x2="15.4208" y2="30" gradientUnits="userSpaceOnUse">
<stop stop-color="#CB15B5"/>
<stop offset="0.552083" stop-color="#DF28C9"/>
<stop offset="1" stop-color="#C11EAD"/>
</linearGradient>
<linearGradient id="paint1_linear_209_300" x1="15.4208" y1="0" x2="15.4208" y2="30" gradientUnits="userSpaceOnUse">
<stop stop-color="#E624CE"/>
<stop offset="1" stop-color="#DD14C4"/>
</linearGradient>
</defs>
</svg>
