<svg width="20" height="20" viewBox="0 0 20 20" fill="none" xmlns="http://www.w3.org/2000/svg">
<path d="M5.14734 10.537C4.73861 11.3458 5.20268 11.7324 6.2615 12.3928C7.16163 12.9526 8.40514 13.1573 9.20392 13.2392C8.87654 13.556 10.3767 12.1035 6.05613 16.2871C5.14 17.171 6.61488 18.5892 7.53034 17.7241L10.0087 15.3179C10.9575 16.2367 11.867 17.1173 12.4871 17.7274C13.4032 18.596 14.8774 17.1898 13.9713 16.2904C13.9033 16.2253 10.6128 13.0479 10.8135 13.2425C11.6223 13.1607 12.8471 12.9439 13.7366 12.3962L13.7359 12.3955C14.7947 11.7317 15.2588 11.3458 14.8561 10.537C14.6127 10.0779 13.9566 9.69396 13.0831 10.3578C13.0831 10.3578 11.9036 11.2672 10.0014 11.2672C8.09843 11.2672 6.91959 10.3578 6.91959 10.3578C6.0468 9.6906 5.38804 10.0779 5.14734 10.537Z" fill="#828282"/>
<path d="M10.0003 10C12.2021 10 14 8.20919 14 6.00461C14 3.79081 12.2021 2 10.0003 2C7.7979 2 6 3.79081 6 6.00461C6 8.20919 7.7979 10 10.0003 10ZM10.0003 4.02866C11.0822 4.02866 11.9647 4.91221 11.9647 6.00461C11.9647 7.08779 11.0822 7.97134 10.0003 7.97134C8.91841 7.97134 8.03593 7.08779 8.03593 6.00461C8.03529 4.91155 8.91778 4.02866 10.0003 4.02866Z" fill="#828282"/>
</svg>
