<svg width="32" height="32" viewBox="0 0 32 32" fill="none" xmlns="http://www.w3.org/2000/svg">
<rect width="32" height="32" rx="16" fill="#F9F9F9"/>
<path d="M11.1473 16.537C10.7386 17.3458 11.2027 17.7324 12.2615 18.3928C13.1616 18.9526 14.4051 19.1573 15.2039 19.2392C14.8765 19.556 16.3768 18.1035 12.0561 22.2871C11.14 23.171 12.6149 24.5892 13.5303 23.7241L16.0087 21.3179C16.9575 22.2367 17.867 23.1173 18.4871 23.7274C19.4032 24.596 20.8774 23.1898 19.9713 22.2904C19.9033 22.2253 16.6128 19.0479 16.8135 19.2425C17.6223 19.1607 18.8471 18.9439 19.7366 18.3962L19.7359 18.3955C20.7947 17.7317 21.2588 17.3458 20.8561 16.537C20.6127 16.0779 19.9566 15.694 19.0831 16.3578C19.0831 16.3578 17.9036 17.2672 16.0014 17.2672C14.0984 17.2672 12.9196 16.3578 12.9196 16.3578C12.0468 15.6906 11.388 16.0779 11.1473 16.537Z" fill="#828282"/>
<path d="M16.0003 16C18.2021 16 20 14.2092 20 12.0046C20 9.79081 18.2021 8 16.0003 8C13.7979 8 12 9.79081 12 12.0046C12 14.2092 13.7979 16 16.0003 16ZM16.0003 10.0287C17.0822 10.0287 17.9647 10.9122 17.9647 12.0046C17.9647 13.0878 17.0822 13.9713 16.0003 13.9713C14.9184 13.9713 14.0359 13.0878 14.0359 12.0046C14.0353 10.9115 14.9178 10.0287 16.0003 10.0287Z" fill="#828282"/>
</svg>
