<svg width="32" height="32" viewBox="0 0 32 32" fill="none" xmlns="http://www.w3.org/2000/svg">
<rect width="32" height="32" rx="16" fill="#F9F9F9"/>
<path fill-rule="evenodd" clip-rule="evenodd" d="M15.82 20.5199H16.78C16.78 20.5199 17.06 20.4799 17.22 20.3199C17.36 20.1799 17.36 19.8999 17.36 19.8999C17.36 19.8999 17.34 18.6199 17.94 18.4199C18.52 18.2399 19.28 19.6599 20.08 20.1999C20.68 20.6199 21.14 20.5199 21.14 20.5199L23.28 20.4999C23.28 20.4999 24.4 20.4399 23.86 19.5599C23.82 19.4799 23.56 18.8999 22.28 17.7199C20.94 16.4799 21.12 16.6799 22.74 14.5199C23.72 13.2199 24.12 12.4199 24 12.0599C23.88 11.7399 23.16 11.8199 23.16 11.8199L20.76 11.8399C20.76 11.8399 20.58 11.8199 20.44 11.8999C20.28 11.9999 20.2 12.1799 20.2 12.1799C20.2 12.1799 19.82 13.1999 19.32 14.0599C18.24 15.8799 17.82 15.9799 17.64 15.8599C17.24 15.5999 17.34 14.7999 17.34 14.2399C17.34 12.4799 17.6 11.7399 16.82 11.5599C16.56 11.4999 16.36 11.4599 15.7 11.4399C14.84 11.4399 14.12 11.4399 13.7 11.6399C13.42 11.7799 13.22 12.0799 13.34 12.0799C13.5 12.0999 13.86 12.1799 14.04 12.4399C14.28 12.7799 14.28 13.5199 14.28 13.5199C14.28 13.5199 14.42 15.5999 13.94 15.8599C13.62 16.0399 13.18 15.6799 12.22 14.0199C11.74 13.1799 11.36 12.2399 11.36 12.2399C11.36 12.2399 11.28 12.0599 11.16 11.9799C11.06 11.8999 10.86 11.8399 10.64 11.8399L8.50003 11.8599C8.50003 11.8599 8.16003 11.8599 8.04003 12.0199C7.92003 12.1599 8.04003 12.4199 8.04003 12.4199C8.04003 12.4199 9.84003 16.5999 11.86 18.6999C13.72 20.6599 15.82 20.5199 15.82 20.5199Z" fill="#828282"/>
</svg>
