<svg width="18" height="10" viewBox="0 0 18 10" fill="none" xmlns="http://www.w3.org/2000/svg">
<path fill-rule="evenodd" clip-rule="evenodd" d="M8.82003 9.51994H9.78003C9.78003 9.51994 10.06 9.47994 10.22 9.31994C10.36 9.17994 10.36 8.89994 10.36 8.89994C10.36 8.89994 10.34 7.61994 10.94 7.41994C11.52 7.23994 12.28 8.65994 13.08 9.19994C13.68 9.61994 14.14 9.51994 14.14 9.51994L16.28 9.49994C16.28 9.49994 17.4 9.43994 16.86 8.55994C16.82 8.47994 16.56 7.89994 15.28 6.71994C13.94 5.47994 14.12 5.67994 15.74 3.51994C16.72 2.21994 17.12 1.41994 17 1.05994C16.88 0.739941 16.16 0.819941 16.16 0.819941L13.76 0.839941C13.76 0.839941 13.58 0.819941 13.44 0.899941C13.28 0.999941 13.2 1.17994 13.2 1.17994C13.2 1.17994 12.82 2.19994 12.32 3.05994C11.24 4.87994 10.82 4.97994 10.64 4.85994C10.24 4.59994 10.34 3.79994 10.34 3.23994C10.34 1.47994 10.6 0.739941 9.82003 0.559941C9.56003 0.499941 9.36003 0.459941 8.70003 0.439941C7.84003 0.439941 7.12003 0.439941 6.70003 0.639941C6.42003 0.779941 6.22003 1.07994 6.34003 1.07994C6.50003 1.09994 6.86003 1.17994 7.04003 1.43994C7.28003 1.77994 7.28003 2.51994 7.28003 2.51994C7.28003 2.51994 7.42003 4.59994 6.94003 4.85994C6.62003 5.03994 6.18003 4.67994 5.22003 3.01994C4.74003 2.17994 4.36003 1.23994 4.36003 1.23994C4.36003 1.23994 4.28003 1.05994 4.16003 0.979941C4.06003 0.899941 3.86003 0.839941 3.64003 0.839941L1.50003 0.859941C1.50003 0.859941 1.16003 0.859941 1.04003 1.01994C0.920028 1.15994 1.04003 1.41994 1.04003 1.41994C1.04003 1.41994 2.84003 5.59994 4.86003 7.69994C6.72003 9.65994 8.82003 9.51994 8.82003 9.51994Z" fill="#828282"/>
</svg>
